# xmcd CD database file
#
# Track frame offsets:
#	150
#	16796
#	30055
#	46167
#	61919
#	75577
#	94285
#	116375
#	131511
#	150066
#
# Disc length: 2222 seconds
#
# Revision: 0
# Processed by: cddbd v1.5.2PL0 Copyright (c) Steve Scherf et al.
# Submitted via: CDex 1.51
#
DISCID=5d08ac0a
DTITLE=Dean Brody - Beautiful Freakshow
DYEAR=2016
DGENRE=Country
TTITLE0=Bush Party
TTITLE1=Soggy Bottom Summer (feat. Alan Doyle)
TTITLE2=Little Blue Volkswagen (feat. Sarah Blackwood)
TTITLE3=Beautiful Freakshow (feat. Shevy Price)
TTITLE4=8th Day
TTITLE5=Blueberry Sky
TTITLE6=Beautiful Girl
TTITLE7=Memory Lane
TTITLE8=Time
TTITLE9=Another Saturday Night
EXTD=YEAR: 2016
EXTT0=
EXTT1=
EXTT2=
EXTT3=
EXTT4=
EXTT5=
EXTT6=
EXTT7=
EXTT8=
EXTT9=
PLAYORDER=
